<svg width="63" height="63" viewBox="0 0 63 63" fill="none" xmlns="http://www.w3.org/2000/svg">
<path d="M39.7752 21.2322L26.3605 34.6782L21.2009 29.5187C20.9206 29.1913 20.5756 28.9255 20.1877 28.7378C19.7998 28.5501 19.3772 28.4446 18.9466 28.428C18.5159 28.4114 18.0865 28.4839 17.6852 28.6411C17.2839 28.7983 16.9195 29.0368 16.6147 29.3415C16.31 29.6463 16.0716 30.0107 15.9143 30.412C15.7571 30.8133 15.6846 31.2427 15.7012 31.6733C15.7178 32.104 15.8233 32.5265 16.011 32.9145C16.1987 33.3024 16.4646 33.6474 16.7919 33.9277L24.1403 41.3074C24.4325 41.5972 24.779 41.8265 25.16 41.9821C25.541 42.1377 25.9489 42.2166 26.3605 42.2142C27.1808 42.2108 27.9669 41.8851 28.5493 41.3074L44.1842 25.6725C44.4773 25.3818 44.71 25.036 44.8687 24.6549C45.0275 24.2739 45.1092 23.8651 45.1092 23.4523C45.1092 23.0395 45.0275 22.6308 44.8687 22.2498C44.71 21.8687 44.4773 21.5229 44.1842 21.2322C43.5984 20.6498 42.8058 20.3229 41.9797 20.3229C41.1536 20.3229 40.3611 20.6498 39.7752 21.2322ZM31.2698 0C25.0852 0 19.0395 1.83394 13.8972 5.26991C8.75495 8.70588 4.74702 13.5896 2.38029 19.3034C0.0135487 25.0172 -0.605698 31.3045 0.600854 37.3702C1.80741 43.436 4.78557 49.0077 9.15873 53.3809C13.5319 57.754 19.1036 60.7322 25.1694 61.9388C31.2351 63.1453 37.5224 62.5261 43.2362 60.1593C48.9501 57.7926 53.8337 53.7847 57.2697 48.6424C60.7057 43.5001 62.5396 37.4544 62.5396 31.2698C62.5396 27.1634 61.7308 23.0972 60.1593 19.3034C58.5879 15.5095 56.2846 12.0624 53.3809 9.15871C50.4772 6.25504 47.0301 3.95173 43.2362 2.38027C39.4424 0.808817 35.3762 0 31.2698 0ZM31.2698 56.2856C26.3221 56.2856 21.4856 54.8185 17.3718 52.0697C13.2579 49.3209 10.0516 45.414 8.15819 40.8429C6.2648 36.2719 5.7694 31.242 6.73465 26.3894C7.69989 21.5369 10.0824 17.0795 13.5809 13.5809C17.0795 10.0824 21.5369 7.69987 26.3895 6.73463C31.2421 5.76939 36.2719 6.26479 40.843 8.15818C45.414 10.0516 49.3209 13.2579 52.0697 17.3717C54.8185 21.4856 56.2856 26.3221 56.2856 31.2698C56.2856 37.9044 53.6501 44.2673 48.9587 48.9587C44.2673 53.65 37.9044 56.2856 31.2698 56.2856Z" fill="#BCBCBC"/>
</svg>
