<?xml version="1.0" encoding="utf-8"?>
<!-- Generator: Adobe Illustrator 22.1.0, SVG Export Plug-In . SVG Version: 6.00 Build 0)  -->
<svg version="1.1" id="illustration" xmlns="http://www.w3.org/2000/svg" xmlns:xlink="http://www.w3.org/1999/xlink" x="0px"
	 y="0px" viewBox="0 0 1039 1037" style="enable-background:new 0 0 1039 1037;" xml:space="preserve">
<style type="text/css">
	.st0{opacity:0.3;fill:url(#SVGID_1_);enable-background:new    ;}
	.st1{opacity:0.3;fill:url(#SVGID_2_);enable-background:new    ;}
	.st2{fill:#F2994A;}
	.st3{fill:#F2C94C;}
	.st4{opacity:7.000000e-02;fill:#FFFFFF;enable-background:new    ;}
	.st5{opacity:0.3;fill:url(#SVGID_3_);enable-background:new    ;}
	.st6{opacity:0.1;fill:#FFFFFF;enable-background:new    ;}
	.st7{opacity:0.3;fill:#FFFFFF;enable-background:new    ;}
	.st8{opacity:0.15;fill:#FFFFFF;enable-background:new    ;}
	.st9{opacity:0.3;fill:url(#SVGID_4_);enable-background:new    ;}
</style>
<linearGradient id="SVGID_1_" gradientUnits="userSpaceOnUse" x1="428.8296" y1="983.5727" x2="549.9856" y2="598.6177" gradientTransform="matrix(1 0 0 -1 0 1284)">
	<stop  offset="0" style="stop-color:#FFFFFF"/>
	<stop  offset="1" style="stop-color:#FFFFFF;stop-opacity:0"/>
</linearGradient>
<path class="st0" d="M959.8,533.6c97.6-84.8,111.3-4.1,117.9-2.8c0,0,2.9,19.5,0,90.6l-951.4,549.1V784.1
	c108.1-193.7,179.7-329,250.2-266.6c122,108.1,181.4,180.7,326.5,30.7C788.9,459.4,842.6,635.4,959.8,533.6z"/>
<linearGradient id="SVGID_2_" gradientUnits="userSpaceOnUse" x1="376.293" y1="817.8347" x2="445.1051" y2="506.3548" gradientTransform="matrix(1 0 0 -1 0 1284)">
	<stop  offset="0" style="stop-color:#FFFFFF"/>
	<stop  offset="1" style="stop-color:#FFFFFF;stop-opacity:0"/>
</linearGradient>
<path class="st1" d="M834.1,601.8c97.6-84.8,111.3-4.1,117.9-2.8c0,0,2.9,19.5,0,90.6L0.6,1238.7V852.3
	c154-223.6,255.5-182,343.5-149.7c86.2,31.6,117.8-34.4,226.9-128.5C660.8,496.6,716.9,703.5,834.1,601.8z"/>
<path class="st2" d="M312.5,512.6c0-8,4.7-17.1,10.4-20.4s10.4,0.4,10.4,8.4s-4.7,17.1-10.4,20.4
	C317.1,524.3,312.5,520.6,312.5,512.6z"/>
<path class="st3" d="M588.3,566.4c0-7.7,4.8-16.7,10.8-20.1s10.8,0,10.8,7.7s-4.8,16.7-10.8,20.1
	C593.2,577.5,588.3,574.1,588.3,566.4z"/>
<path class="st4" d="M379,0.8L194.4,107.4v362.8L379,363.7V0.8z"/>
<linearGradient id="SVGID_3_" gradientUnits="userSpaceOnUse" x1="322.7" y1="82.7877" x2="322.7" y2="571.3744">
	<stop  offset="0" style="stop-color:#FFFFFF;stop-opacity:0"/>
	<stop  offset="1" style="stop-color:#FFFFFF"/>
</linearGradient>
<polygon class="st5" points="415,32 230.4,138.6 230.4,501.4 310.2,455.4 322.7,465.6 335.2,440.9 415,394.9 "/>
<path class="st6" d="M254.6,251.7c0,11.6,1.7,22.2,4.9,31.1c3.2,8.9,7.9,15.9,13.8,20.7c5.9,4.8,13,7.2,20.7,7.2s16.1-2.5,24.4-7.4
	v-88.5L254.6,251.7z"/>
<path class="st7" d="M318.5,303.3c11.2-6.5,22.2-16.9,31.9-30.3c9.7-13.4,17.8-29.2,23.4-45.9s8.6-33.7,8.6-49.2s-3-29.1-8.6-39.3
	l-55.3,76.2V303.3z"/>
<path class="st2" d="M254.6,251.7c0-19.5,4.6-41.1,13.2-61.5s20.6-38.4,34.1-51.3c13.6-12.9,28-19.9,41-19.9s23.8,6.9,30.9,19.7
	l-55.3,76.2L254.6,251.7z"/>
<path class="st8" d="M390.9,307.2l-112.5,64.9v13.6l112.5-64.9V307.2z"/>
<path class="st8" d="M390.9,333.8l-136.4,78.7v13.6L391,347.4L390.9,333.8z"/>
<path class="st8" d="M391,360.3l-88.4,51v13.6l88.4-51V360.3z"/>
<path class="st4" d="M655.9,55L471.3,161.6v362.8l184.6-106.5V55z"/>
<linearGradient id="SVGID_4_" gradientUnits="userSpaceOnUse" x1="599.2" y1="142.2738" x2="599.2" y2="604.9215">
	<stop  offset="0" style="stop-color:#FFFFFF;stop-opacity:0"/>
	<stop  offset="1" style="stop-color:#FFFFFF"/>
</linearGradient>
<polygon class="st9" points="691.5,86.5 506.9,193 506.9,555.8 586.6,509.9 599.1,520.1 611.7,495.4 691.5,449.3 "/>
<path class="st6" d="M531,306.1c0,15.5,3,29.1,8.6,39.3c5.6,10.2,13.7,16.7,23.4,18.9l31.9-95.1L531,306.1z"/>
<path class="st7" d="M562.9,364.3c12.2,2.7,26.3-1.6,40.3-12.1c13.9-10.6,26.9-26.9,36.8-46.4l-45.2-36.5L562.9,364.3z"/>
<path class="st3" d="M531,306.1c0-14.6,2.6-30.4,7.5-46.1s12.1-30.8,20.8-43.9c8.7-13.1,18.8-23.9,29.2-31.4
	c10.5-7.5,21-11.4,30.7-11.4s18.3,3.8,24.9,11.2c6.7,7.4,11.2,18.1,13.3,31.2c2.1,13.1,1.5,28.1-1.5,43.8c-3,15.7-8.5,31.5-16,46.1
	l-45.2-36.5L531,306.1z"/>
<path class="st8" d="M667.4,361.6l-127.7,73.7v13.6l127.7-73.7V361.6z"/>
<path class="st8" d="M667.4,388.2l-132.6,76.6v13.6l132.6-76.6V388.2z"/>
<path class="st8" d="M667.4,414.8l-88.4,51v13.6l88.4-51V414.8z"/>
</svg>
