<svg width="75" height="58" viewBox="0 0 75 58" fill="none" xmlns="http://www.w3.org/2000/svg">
<path d="M73.1783 20.8253L69.6064 18.8607L37.4588 1.00098H37.0659C36.8469 0.908394 36.6197 0.836639 36.3872 0.786667H35.7086H35.0656C34.8216 0.836671 34.5825 0.908396 34.3512 1.00098H33.9583L1.81079 18.8607C1.26108 19.1723 0.803839 19.624 0.485723 20.17C0.167607 20.7159 0 21.3365 0 21.9683C0 22.6002 0.167607 23.2207 0.485723 23.7667C0.803839 24.3126 1.26108 24.7644 1.81079 25.0759L10.7049 30.0052V46.9362C10.7049 49.7783 11.8339 52.5039 13.8435 54.5135C15.8532 56.5231 18.5788 57.6521 21.4208 57.6521H49.9964C52.8384 57.6521 55.564 56.5231 57.5736 54.5135C59.5832 52.5039 60.7122 49.7783 60.7122 46.9362V30.0052L67.8561 26.0046V36.2204C67.8561 37.1677 68.2324 38.0763 68.9023 38.7461C69.5722 39.416 70.4807 39.7923 71.4281 39.7923C72.3754 39.7923 73.2839 39.416 73.9538 38.7461C74.6237 38.0763 75 37.1677 75 36.2204V23.9329C74.9989 23.3 74.8297 22.6787 74.5096 22.1326C74.1895 21.5866 73.73 21.1354 73.1783 20.8253ZM53.5683 46.9362C53.5683 47.8836 53.192 48.7921 52.5221 49.462C51.8522 50.1319 50.9437 50.5082 49.9964 50.5082H21.4208C20.4734 50.5082 19.5649 50.1319 18.895 49.462C18.2252 48.7921 17.8488 47.8836 17.8488 46.9362V33.9701L33.9583 42.8999L34.4941 43.1143H34.8156C35.1121 43.1516 35.4121 43.1516 35.7086 43.1143C36.0051 43.1516 36.3051 43.1516 36.6016 43.1143H36.923C37.1127 43.0743 37.2939 43.0018 37.4588 42.8999L53.5683 33.9701V46.9362ZM35.7086 35.7203L10.9193 21.9326L35.7086 8.14488L60.4979 21.9326L35.7086 35.7203Z" fill="#BCBCBC"/>
</svg>
