<svg width="58" height="57" viewBox="0 0 58 57" fill="none" xmlns="http://www.w3.org/2000/svg">
<path d="M16.4468 37.6171C15.9403 38.1026 15.656 38.7592 15.656 39.4437C15.656 40.1282 15.9403 40.7849 16.4468 41.2703C16.6996 41.5132 17.0003 41.7059 17.3317 41.8374C17.6631 41.969 18.0186 42.0367 18.3776 42.0367C18.7366 42.0367 19.092 41.969 19.4234 41.8374C19.7548 41.7059 20.0556 41.5132 20.3084 41.2703C20.8149 40.7849 21.0992 40.1282 21.0992 39.4437C21.0992 38.7592 20.8149 38.1026 20.3084 37.6171C20.0556 37.3743 19.7548 37.1815 19.4234 37.05C19.092 36.9185 18.7366 36.8507 18.3776 36.8507C18.0186 36.8507 17.6631 36.9185 17.3317 37.05C17.0003 37.1815 16.6996 37.3743 16.4468 37.6171ZM16.4468 15.6203C15.9403 16.1058 15.656 16.7624 15.656 17.4469C15.656 18.1314 15.9403 18.7881 16.4468 19.2735C16.6996 19.5163 17.0003 19.7091 17.3317 19.8406C17.6631 19.9722 18.0186 20.0399 18.3776 20.0399C18.7366 20.0399 19.092 19.9722 19.4234 19.8406C19.7548 19.7091 20.0556 19.5163 20.3084 19.2735C20.8149 18.7881 21.0992 18.1314 21.0992 17.4469C21.0992 16.7624 20.8149 16.1058 20.3084 15.6203C20.0556 15.3775 19.7548 15.1847 19.4234 15.0532C19.092 14.9217 18.7366 14.8539 18.3776 14.8539C18.0186 14.8539 17.6631 14.9217 17.3317 15.0532C17.0003 15.1847 16.6996 15.3775 16.4468 15.6203ZM29.908 41.5294C29.3702 41.5294 28.8444 41.6814 28.3972 41.9661C27.95 42.2508 27.6014 42.6554 27.3956 43.1288C27.1897 43.6022 27.1359 44.1232 27.2408 44.6258C27.3458 45.1284 27.6048 45.59 27.9851 45.9524C28.3654 46.3147 28.85 46.5615 29.3775 46.6614C29.905 46.7614 30.4518 46.7101 30.9487 46.514C31.4456 46.3179 31.8703 45.9858 32.1692 45.5597C32.468 45.1337 32.6275 44.6328 32.6275 44.1203C32.6459 43.7693 32.5892 43.4184 32.4608 43.089C32.3324 42.7595 32.1351 42.4584 31.8807 42.2039C31.6263 41.9495 31.3202 41.7469 30.9811 41.6087C30.642 41.4705 30.2769 41.3994 29.908 41.3999V41.5294ZM13.5913 25.984C13.0535 25.984 12.5277 26.1359 12.0805 26.4206C11.6333 26.7053 11.2847 27.1099 11.0789 27.5834C10.8731 28.0568 10.8192 28.5777 10.9241 29.0803C11.0291 29.5829 11.2881 30.0446 11.6684 30.4069C12.0487 30.7693 12.5333 31.016 13.0608 31.116C13.5883 31.216 14.1351 31.1647 14.632 30.9686C15.1289 30.7725 15.5537 30.4404 15.8525 30.0143C16.1513 29.5882 16.3108 29.0873 16.3108 28.5749C16.3292 28.2239 16.2725 27.873 16.1441 27.5435C16.0158 27.2141 15.8184 26.913 15.564 26.6585C15.3096 26.404 15.0035 26.2015 14.6644 26.0633C14.3253 25.925 13.9602 25.854 13.5913 25.8544V25.984ZM29.908 10.4385C29.3702 10.4385 28.8444 10.5905 28.3972 10.8752C27.95 11.1598 27.6014 11.5645 27.3956 12.0379C27.1897 12.5113 27.1359 13.0323 27.2408 13.5349C27.3458 14.0375 27.6048 14.4991 27.9851 14.8615C28.3654 15.2238 28.85 15.4706 29.3775 15.5705C29.905 15.6705 30.4518 15.6192 30.9487 15.4231C31.4456 15.227 31.8703 14.8949 32.1692 14.4688C32.468 14.0428 32.6275 13.5419 32.6275 13.0294C32.6459 12.6784 32.5892 12.3275 32.4608 11.9981C32.3324 11.6686 32.1351 11.3675 31.8807 11.113C31.6263 10.8586 31.3202 10.656 30.9811 10.5178C30.642 10.3796 30.2769 10.3085 29.908 10.309V10.4385ZM39.5349 15.7499C39.1529 16.1116 38.8923 16.5732 38.7861 17.0762C38.6798 17.5792 38.7327 18.101 38.9381 18.5753C39.1434 19.0496 39.492 19.4552 39.9395 19.7406C40.3871 20.0259 40.9135 20.1783 41.4521 20.1783C41.9906 20.1783 42.517 20.0259 42.9646 19.7406C43.4122 19.4552 43.7607 19.0496 43.9661 18.5753C44.1714 18.101 44.2243 17.5792 44.1181 17.0762C44.0118 16.5732 43.7512 16.1116 43.3693 15.7499C42.878 15.2497 42.1987 14.9553 41.4801 14.931C40.7616 14.9067 40.0621 15.1546 39.5349 15.6203V15.7499ZM56.6674 15.7499C54.1811 11.0145 50.3594 7.03255 45.6308 4.25064C40.9021 1.46874 35.4536 -0.00315891 29.8961 5.09028e-06C24.3386 0.00316909 18.8919 1.48127 14.1667 4.26856C9.44159 7.05584 5.62485 11.0421 3.14452 15.7803C0.664184 20.5186 -0.38168 25.8214 0.124205 31.0943C0.63009 36.3671 2.66772 41.4014 6.00861 45.6327C9.34949 49.864 13.8615 53.125 19.0388 55.0499C24.216 56.9748 29.8537 57.4876 35.3197 56.5308C36.6942 56.2844 38.0034 55.7794 39.1708 55.0454C40.3381 54.3113 41.3401 53.363 42.1183 52.2558C42.9569 51.052 43.5354 49.7012 43.8202 48.2822C44.105 46.8632 44.0904 45.4044 43.7772 43.9908C43.606 43.1365 43.5149 42.2695 43.5053 41.3999C43.5172 38.8892 44.2946 36.4359 45.743 34.3384C47.1914 32.2409 49.2483 30.5896 51.6636 29.5853C52.9659 29.0298 54.1348 28.2259 55.0983 27.2233C56.0618 26.2207 56.7994 25.0405 57.2657 23.7558C57.7372 22.4429 57.9272 21.0532 57.8245 19.6691C57.7217 18.285 57.3282 16.9346 56.6674 15.6981V15.7499ZM52.0443 22.0717C51.8123 22.6917 51.452 23.2611 50.9849 23.7462C50.5178 24.2313 49.9533 24.6222 49.3249 24.8958C45.9799 26.3223 43.1382 28.6385 41.1411 31.5661C39.144 34.4937 38.0764 37.9083 38.0664 41.3999C38.0704 42.6178 38.1979 43.8325 38.4471 45.0271C38.6132 45.7572 38.6241 46.5117 38.4794 47.2459C38.3346 47.9801 38.0369 48.6792 37.6041 49.3021C37.2378 49.8473 36.7558 50.3133 36.189 50.6703C35.6223 51.0273 34.9834 51.2673 34.3135 51.3749C32.8609 51.6349 31.386 51.765 29.908 51.7635C26.6288 51.765 23.3827 51.1387 20.3626 49.9217C17.3424 48.7048 14.6096 46.922 12.3267 44.6793C10.0437 42.4366 8.25708 39.7797 7.07286 36.8663C5.88863 33.9529 5.33097 30.8426 5.43299 27.7199C5.64405 21.8976 8.12254 16.3586 12.3856 12.1821C16.6487 8.00557 22.391 5.4906 28.4939 5.12714H29.8808C34.4379 5.12823 38.9043 6.34147 42.7768 8.63022C46.6493 10.919 49.7742 14.1923 51.7996 18.0817C52.423 19.3123 52.5109 20.7277 52.0443 22.0199V22.0717ZM29.908 25.8544C29.3702 25.8544 28.8444 26.0064 28.3972 26.2911C27.95 26.5758 27.6014 26.9804 27.3956 27.4538C27.1897 27.9272 27.1359 28.4482 27.2408 28.9508C27.3458 29.4534 27.6048 29.915 27.9851 30.2774C28.3654 30.6397 28.85 30.8865 29.3775 30.9864C29.905 31.0864 30.4518 31.0351 30.9487 30.839C31.4456 30.6429 31.8703 30.3108 32.1692 29.8848C32.468 29.4587 32.6275 28.9578 32.6275 28.4453C32.6275 27.7582 32.341 27.0992 31.831 26.6133C31.321 26.1274 30.6293 25.8544 29.908 25.8544Z" fill="#BCBCBC"/>
</svg>
