<svg width="30" height="54" viewBox="0 0 30 54" fill="none" xmlns="http://www.w3.org/2000/svg">
<path d="M29.5409 15.513C29.5408 12.098 28.4139 8.7785 26.3349 6.06925C24.256 3.36 21.3412 1.41243 18.0426 0.528587C14.7439 -0.355254 11.2458 -0.125973 8.09081 1.18087C4.93578 2.48771 2.30011 4.79908 0.592581 7.75652C0.00554153 8.77472 -0.153126 9.98437 0.151461 11.1195C0.456048 12.2547 1.19896 13.2224 2.21686 13.81C3.23476 14.3975 4.44433 14.5568 5.57964 14.2528C6.71495 13.9488 7.68307 13.2064 8.27115 12.1888C8.85551 11.179 9.69484 10.3405 10.7051 9.75711C11.7155 9.17372 12.8613 8.86594 14.0279 8.86459C15.7912 8.86459 17.4822 9.56504 18.7291 10.8119C19.9759 12.0587 20.6763 13.7497 20.6763 15.513C20.6763 17.2763 19.9759 18.9673 18.7291 20.2141C17.4822 21.461 15.7912 22.1614 14.0279 22.1614H14.0171C13.7324 22.1899 13.4513 22.2474 13.1782 22.333C12.8796 22.364 12.5847 22.4243 12.2979 22.5131C12.0539 22.6457 11.823 22.8013 11.6086 22.9778C11.3541 23.1163 11.1136 23.2792 10.8906 23.4643C10.6913 23.7021 10.5174 23.9602 10.3717 24.2342C10.2102 24.4341 10.0668 24.6479 9.94323 24.8732C9.84691 25.1787 9.78324 25.4935 9.7533 25.8124C9.67613 26.0673 9.62334 26.3289 9.59564 26.5937V31.026L9.60593 31.0763L9.61081 33.2529C9.61386 34.4265 10.0821 35.551 10.913 36.3798C11.7439 37.2087 12.8695 37.6742 14.0431 37.6744H14.0539C15.2294 37.6715 16.3556 37.2017 17.1847 36.3685C18.0139 35.5353 18.4782 34.4068 18.4754 33.2313L18.4686 30.2999C21.6579 29.3518 24.457 27.4017 26.4512 24.7384C28.4455 22.075 29.5289 18.8402 29.5409 15.513ZM10.9136 45.6082C10.2913 46.2254 9.86597 47.0132 9.69136 47.8722C9.51676 48.7311 9.60073 49.6225 9.93266 50.4337C10.2646 51.2449 10.8296 51.9394 11.5562 52.4296C12.2828 52.9197 13.1385 53.1834 14.0149 53.1874C15.1904 53.1778 16.3174 52.7177 17.1639 51.902C17.9865 51.0612 18.4472 49.9316 18.4472 48.7553C18.4472 47.5789 17.9865 46.4493 17.1639 45.6085C16.3154 44.8178 15.1987 44.3781 14.0388 44.378C12.879 44.3779 11.7622 44.8175 10.9136 45.6082Z" fill="#BCBCBC"/>
</svg>
