<svg width="940" height="454" viewBox="0 0 940 454" fill="none" xmlns="http://www.w3.org/2000/svg">
<mask id="path-1-inside-1_15_43" fill="white">
<path d="M746.049 89.7905C818.528 30.7094 905.549 5.31305 940 0V454L0 454V408.573C8.94479 404.943 22.5887 395.291 35.3363 370.054C48.6207 343.754 73.8609 281.06 174.556 265.121C275.252 249.182 413.674 305.5 541.47 250.776C669.265 196.051 655.449 163.642 746.049 89.7905Z"/>
</mask>
<path d="M940 0H1340V-466.418L879.032 -395.326L940 0ZM746.049 89.7905L493.318 -220.254L493.318 -220.253L746.049 89.7905ZM541.47 250.776L384.012 -116.929L384.011 -116.929L541.47 250.776ZM174.556 265.121L112.019 -129.96L112.019 -129.96L174.556 265.121ZM35.3363 370.054L-321.701 189.709L-321.701 189.709L35.3363 370.054ZM0 408.573L-150.436 37.9401L-400 139.235V408.573H0ZM0 454H-400V854L1.29862e-05 854L0 454ZM940 454L940 854L1340 854V454H940ZM879.032 -395.326C791.135 -381.771 632.901 -334.033 493.318 -220.254L998.779 399.835C998.108 400.382 997.88 400.516 998.182 400.312C998.483 400.108 999.161 399.668 1000.24 399.05C1001.32 398.434 1002.65 397.73 1004.21 396.979C1005.76 396.229 1007.38 395.507 1009.01 394.839C1010.65 394.169 1012.12 393.619 1013.35 393.195C1014.59 392.766 1015.37 392.537 1015.56 392.482C1015.79 392.415 1015.02 392.645 1013.14 393.071C1012.17 393.291 1010.73 393.602 1008.83 393.969C1006.97 394.33 1004.33 394.809 1000.97 395.326L879.032 -395.326ZM493.318 -220.253C454.435 -188.558 425.501 -160.118 402.585 -135.776C392.539 -125.104 383.075 -114.566 378.805 -109.855C373.3 -103.78 372.494 -102.996 372.934 -103.443C377.103 -107.669 385.515 -115.17 394.948 -121.369C401.819 -125.884 400.949 -124.182 384.012 -116.929L698.928 618.481C745.888 598.372 791.215 575.5 834.269 547.21C879.885 517.235 914.467 486.755 942.482 458.354C1005.98 393.981 973.816 420.183 998.779 399.835L493.318 -220.253ZM384.011 -116.929C413.728 -129.654 429.2 -122.128 380.96 -126.134C369.732 -127.067 358.302 -128.243 341.839 -129.924C326.985 -131.44 306.961 -133.481 286.288 -135.03C247.395 -137.945 183.273 -141.239 112.019 -129.96L237.094 660.202C216.187 663.512 207.129 661.281 226.504 662.732C234.965 663.367 244.877 664.335 260.571 665.938C274.655 667.376 294.386 669.43 314.741 671.12C392.835 677.607 541.416 685.931 698.928 618.481L384.011 -116.929ZM112.019 -129.96C-20.5166 -108.981 -130.942 -50.4353 -213.36 33.5693C-286.537 108.156 -323.923 194.108 -321.701 189.709L392.374 550.399C407.88 519.7 389.757 561.155 357.694 593.835C339.51 612.369 317.869 628.67 293.845 640.916C270.131 653.003 249.924 658.171 237.094 660.202L112.019 -129.96ZM-321.701 189.709C-299.626 146.006 -247.626 77.3886 -150.436 37.9401L150.436 779.207C265.516 732.497 344.803 644.576 392.374 550.399L-321.701 189.709ZM-400 408.573V454H400V408.573H-400ZM1.29862e-05 854L940 854L940 54L-1.29862e-05 54.0001L1.29862e-05 854ZM1340 454V0H540V454H1340Z" fill="url(#paint0_linear_15_43)" mask="url(#path-1-inside-1_15_43)"/>
<defs>
<linearGradient id="paint0_linear_15_43" x1="470" y1="0" x2="470" y2="454" gradientUnits="userSpaceOnUse">
<stop stop-color="#434343"/>
<stop offset="1" stop-color="#434343" stop-opacity="0"/>
</linearGradient>
</defs>
</svg>
