<svg width="734" height="430" viewBox="0 0 734 430" fill="none" xmlns="http://www.w3.org/2000/svg">
<mask id="path-1-inside-1_27_36" fill="white">
<path d="M240.489 288.223C191.371 188.725 59.6973 54.6167 0 0V430H734V392.221C580.614 352.108 478.853 379.487 453.359 383.732C427.866 387.976 301.885 412.596 240.489 288.223Z"/>
</mask>
<path d="M0 0L193.729 -211.75L-287 -651.566V0H0ZM240.489 288.223L-16.8624 415.264L240.489 288.223ZM453.359 383.732L406.221 100.629L406.221 100.629L453.359 383.732ZM734 392.221H1021V170.625L806.614 114.559L734 392.221ZM734 430V717H1021V430H734ZM0 430H-287V717H0V430ZM-193.729 211.75C-170.782 232.744 -130.246 272.62 -91.1138 317.028C-48.1643 365.767 -23.9485 400.91 -16.8624 415.264L497.84 161.182C455.808 76.0378 389.628 -5.62263 339.537 -62.4662C285.629 -123.642 230.479 -178.128 193.729 -211.75L-193.729 211.75ZM-16.8624 415.264C58.665 568.262 186.615 641.068 301.619 665.128C354.161 676.12 400.767 676.597 434.824 674.594C452.214 673.572 467.231 671.844 479.013 670.202C484.903 669.382 489.957 668.586 493.852 667.948C495.57 667.666 502.565 666.49 500.497 666.834L406.221 100.629C391.725 103.043 402.829 99.8747 419.156 103.291C430.144 105.589 447.031 111.167 464.558 123.878C483.088 137.316 493.475 152.341 497.84 161.182L-16.8624 415.264ZM500.497 666.834C532.871 661.443 534.172 659.262 559.88 657.992C581.658 656.917 615.925 657.994 661.386 669.883L806.614 114.559C698.69 86.3347 605.382 81.0449 531.56 84.6914C461.667 88.144 399.341 101.775 406.221 100.629L500.497 666.834ZM447 392.221V430H1021V392.221H447ZM734 143H0V717H734V143ZM287 430V0H-287V430H287Z" fill="url(#paint0_radial_27_36)" mask="url(#path-1-inside-1_27_36)"/>
<defs>
<radialGradient id="paint0_radial_27_36" cx="0" cy="0" r="1" gradientUnits="userSpaceOnUse" gradientTransform="translate(468.23 193.351) rotate(104.513) scale(222.963 380.547)">
<stop stop-color="#BCBCBC"/>
<stop offset="1" stop-color="#BCBCBC" stop-opacity="0"/>
</radialGradient>
</defs>
</svg>
